<svg width="24" height="25" viewBox="0 0 24 25" fill="none" xmlns="http://www.w3.org/2000/svg">
<path d="M9 9.32422L15 15.3242M3 12.3242C3 13.5061 3.23279 14.6764 3.68508 15.7684C4.13738 16.8603 4.80031 17.8525 5.63604 18.6882C6.47177 19.5239 7.46392 20.1868 8.55585 20.6391C9.64778 21.0914 10.8181 21.3242 12 21.3242C13.1819 21.3242 14.3522 21.0914 15.4442 20.6391C16.5361 20.1868 17.5282 19.5239 18.364 18.6882C19.1997 17.8525 19.8626 16.8603 20.3149 15.7684C20.7672 14.6764 21 13.5061 21 12.3242C21 11.1423 20.7672 9.972 20.3149 8.88007C19.8626 7.78814 19.1997 6.79599 18.364 5.96026C17.5282 5.12453 16.5361 4.4616 15.4442 4.0093C14.3522 3.55701 13.1819 3.32422 12 3.32422C10.8181 3.32422 9.64778 3.55701 8.55585 4.0093C7.46392 4.4616 6.47177 5.12453 5.63604 5.96026C4.80031 6.79599 4.13738 7.78814 3.68508 8.88007C3.23279 9.972 3 11.1423 3 12.3242Z" stroke="white" stroke-width="2" stroke-linecap="round" stroke-linejoin="round"/>
</svg>
